<svg aria-hidden="true" style="position: absolute; width: 0; height: 0; overflow: hidden;" version="1.1" xmlns="http://www.w3.org/2000/svg" xmlns:xlink="http://www.w3.org/1999/xlink">
<defs>
<symbol id="icon-heart" viewBox="0 0 28 28">
<path d="M14 26c-0.25 0-0.5-0.094-0.688-0.281l-9.75-9.406c-0.125-0.109-3.563-3.25-3.563-7 0-4.578 2.797-7.313 7.469-7.313 2.734 0 5.297 2.156 6.531 3.375 1.234-1.219 3.797-3.375 6.531-3.375 4.672 0 7.469 2.734 7.469 7.313 0 3.75-3.437 6.891-3.578 7.031l-9.734 9.375c-0.187 0.187-0.438 0.281-0.688 0.281z"></path>
</symbol>
<symbol id="icon-star-o" viewBox="0 0 26 28">
<path d="M17.766 15.687l4.781-4.641-6.594-0.969-2.953-5.969-2.953 5.969-6.594 0.969 4.781 4.641-1.141 6.578 5.906-3.109 5.891 3.109zM26 10.109c0 0.281-0.203 0.547-0.406 0.75l-5.672 5.531 1.344 7.812c0.016 0.109 0.016 0.203 0.016 0.313 0 0.422-0.187 0.781-0.641 0.781-0.219 0-0.438-0.078-0.625-0.187l-7.016-3.687-7.016 3.687c-0.203 0.109-0.406 0.187-0.625 0.187-0.453 0-0.656-0.375-0.656-0.781 0-0.109 0.016-0.203 0.031-0.313l1.344-7.812-5.688-5.531c-0.187-0.203-0.391-0.469-0.391-0.75 0-0.469 0.484-0.656 0.875-0.719l7.844-1.141 3.516-7.109c0.141-0.297 0.406-0.641 0.766-0.641s0.625 0.344 0.766 0.641l3.516 7.109 7.844 1.141c0.375 0.063 0.875 0.25 0.875 0.719z"></path>
</symbol>
<symbol id="icon-user" viewBox="0 0 20 28">
<path d="M20 21.859c0 2.281-1.5 4.141-3.328 4.141h-13.344c-1.828 0-3.328-1.859-3.328-4.141 0-4.109 1.016-8.859 5.109-8.859 1.266 1.234 2.984 2 4.891 2s3.625-0.766 4.891-2c4.094 0 5.109 4.75 5.109 8.859zM16 8c0 3.313-2.688 6-6 6s-6-2.688-6-6 2.688-6 6-6 6 2.688 6 6z"></path>
</symbol>
<symbol id="icon-volume-down" viewBox="0 0 18 28">
<path d="M12 5.5v17c0 0.547-0.453 1-1 1-0.266 0-0.516-0.109-0.703-0.297l-5.203-5.203h-4.094c-0.547 0-1-0.453-1-1v-6c0-0.547 0.453-1 1-1h4.094l5.203-5.203c0.187-0.187 0.438-0.297 0.703-0.297 0.547 0 1 0.453 1 1zM18 14c0 1.563-0.953 3.078-2.422 3.672-0.125 0.063-0.266 0.078-0.391 0.078-0.547 0-1-0.438-1-1 0-1.188 1.813-0.859 1.813-2.75s-1.813-1.563-1.813-2.75c0-0.562 0.453-1 1-1 0.125 0 0.266 0.016 0.391 0.078 1.469 0.578 2.422 2.109 2.422 3.672z"></path>
</symbol>
<symbol id="icon-volume-up" viewBox="0 0 26 28">
<path d="M12 5.5v17c0 0.547-0.453 1-1 1-0.266 0-0.516-0.109-0.703-0.297l-5.203-5.203h-4.094c-0.547 0-1-0.453-1-1v-6c0-0.547 0.453-1 1-1h4.094l5.203-5.203c0.187-0.187 0.438-0.297 0.703-0.297 0.547 0 1 0.453 1 1zM18 14c0 1.563-0.953 3.078-2.422 3.672-0.125 0.063-0.266 0.078-0.391 0.078-0.547 0-1-0.438-1-1 0-1.188 1.813-0.859 1.813-2.75s-1.813-1.563-1.813-2.75c0-0.562 0.453-1 1-1 0.125 0 0.266 0.016 0.391 0.078 1.469 0.578 2.422 2.109 2.422 3.672zM22 14c0 3.172-1.906 6.125-4.844 7.359-0.125 0.047-0.266 0.078-0.391 0.078-0.562 0-1.016-0.453-1.016-1 0-0.438 0.25-0.734 0.609-0.922 0.422-0.219 0.812-0.406 1.188-0.688 1.547-1.125 2.453-2.922 2.453-4.828s-0.906-3.703-2.453-4.828c-0.375-0.281-0.766-0.469-1.188-0.688-0.359-0.187-0.609-0.484-0.609-0.922 0-0.547 0.453-1 1-1 0.141 0 0.281 0.031 0.406 0.078 2.938 1.234 4.844 4.188 4.844 7.359zM26 14c0 4.797-2.859 9.141-7.266 11.031-0.125 0.047-0.266 0.078-0.406 0.078-0.547 0-1-0.453-1-1 0-0.453 0.234-0.703 0.609-0.922 0.219-0.125 0.469-0.203 0.703-0.328 0.438-0.234 0.875-0.5 1.281-0.797 2.562-1.891 4.078-4.875 4.078-8.062s-1.516-6.172-4.078-8.062c-0.406-0.297-0.844-0.562-1.281-0.797-0.234-0.125-0.484-0.203-0.703-0.328-0.375-0.219-0.609-0.469-0.609-0.922 0-0.547 0.453-1 1-1 0.141 0 0.281 0.031 0.406 0.078 4.406 1.891 7.266 6.234 7.266 11.031z"></path>
</symbol>
<symbol id="icon-bookmark" viewBox="0 0 20 28">
<path d="M18.188 2c0.234 0 0.469 0.047 0.688 0.141 0.688 0.266 1.125 0.906 1.125 1.609v20.141c0 0.703-0.438 1.344-1.125 1.609-0.219 0.094-0.453 0.125-0.688 0.125-0.484 0-0.938-0.172-1.297-0.5l-6.891-6.625-6.891 6.625c-0.359 0.328-0.812 0.516-1.297 0.516-0.234 0-0.469-0.047-0.688-0.141-0.688-0.266-1.125-0.906-1.125-1.609v-20.141c0-0.703 0.438-1.344 1.125-1.609 0.219-0.094 0.453-0.141 0.688-0.141h16.375z"></path>
</symbol>
<symbol id="icon-step-backward" viewBox="0 0 16 28">
<path d="M15.297 2.203c0.391-0.391 0.703-0.25 0.703 0.297v23c0 0.547-0.313 0.688-0.703 0.297l-11.094-11.094c-0.094-0.094-0.156-0.187-0.203-0.297v10.594c0 0.547-0.453 1-1 1h-2c-0.547 0-1-0.453-1-1v-22c0-0.547 0.453-1 1-1h2c0.547 0 1 0.453 1 1v10.594c0.047-0.109 0.109-0.203 0.203-0.297z"></path>
</symbol>
<symbol id="icon-fast-backward" viewBox="0 0 28 28">
<path d="M27.297 2.203c0.391-0.391 0.703-0.25 0.703 0.297v23c0 0.547-0.313 0.688-0.703 0.297l-11.094-11.094c-0.094-0.094-0.156-0.187-0.203-0.297v11.094c0 0.547-0.313 0.688-0.703 0.297l-11.094-11.094c-0.094-0.094-0.156-0.187-0.203-0.297v10.594c0 0.547-0.453 1-1 1h-2c-0.547 0-1-0.453-1-1v-22c0-0.547 0.453-1 1-1h2c0.547 0 1 0.453 1 1v10.594c0.047-0.109 0.109-0.203 0.203-0.297l11.094-11.094c0.391-0.391 0.703-0.25 0.703 0.297v11.094c0.047-0.109 0.109-0.203 0.203-0.297z"></path>
</symbol>
<symbol id="icon-backward" viewBox="0 0 28 28">
<path d="M25.297 2.203c0.391-0.391 0.703-0.25 0.703 0.297v23c0 0.547-0.313 0.688-0.703 0.297l-11.094-11.094c-0.094-0.094-0.156-0.187-0.203-0.297v11.094c0 0.547-0.313 0.688-0.703 0.297l-11.094-11.094c-0.391-0.391-0.391-1.016 0-1.406l11.094-11.094c0.391-0.391 0.703-0.25 0.703 0.297v11.094c0.047-0.109 0.109-0.203 0.203-0.297z"></path>
</symbol>
<symbol id="icon-play" viewBox="0 0 22 28">
<path d="M21.625 14.484l-20.75 11.531c-0.484 0.266-0.875 0.031-0.875-0.516v-23c0-0.547 0.391-0.781 0.875-0.516l20.75 11.531c0.484 0.266 0.484 0.703 0 0.969z"></path>
</symbol>
<symbol id="icon-pause" viewBox="0 0 24 28">
<path d="M24 3v22c0 0.547-0.453 1-1 1h-8c-0.547 0-1-0.453-1-1v-22c0-0.547 0.453-1 1-1h8c0.547 0 1 0.453 1 1zM10 3v22c0 0.547-0.453 1-1 1h-8c-0.547 0-1-0.453-1-1v-22c0-0.547 0.453-1 1-1h8c0.547 0 1 0.453 1 1z"></path>
</symbol>
<symbol id="icon-stop" viewBox="0 0 24 28">
<path d="M24 3v22c0 0.547-0.453 1-1 1h-22c-0.547 0-1-0.453-1-1v-22c0-0.547 0.453-1 1-1h22c0.547 0 1 0.453 1 1z"></path>
</symbol>
<symbol id="icon-forward" viewBox="0 0 24 28">
<path d="M0.703 25.797c-0.391 0.391-0.703 0.25-0.703-0.297v-23c0-0.547 0.313-0.688 0.703-0.297l11.094 11.094c0.094 0.094 0.156 0.187 0.203 0.297v-11.094c0-0.547 0.313-0.688 0.703-0.297l11.094 11.094c0.391 0.391 0.391 1.016 0 1.406l-11.094 11.094c-0.391 0.391-0.703 0.25-0.703-0.297v-11.094c-0.047 0.109-0.109 0.203-0.203 0.297z"></path>
</symbol>
<symbol id="icon-fast-forward" viewBox="0 0 28 28">
<path d="M0.703 25.797c-0.391 0.391-0.703 0.25-0.703-0.297v-23c0-0.547 0.313-0.688 0.703-0.297l11.094 11.094c0.094 0.094 0.156 0.187 0.203 0.297v-11.094c0-0.547 0.313-0.688 0.703-0.297l11.094 11.094c0.094 0.094 0.156 0.187 0.203 0.297v-10.594c0-0.547 0.453-1 1-1h2c0.547 0 1 0.453 1 1v22c0 0.547-0.453 1-1 1h-2c-0.547 0-1-0.453-1-1v-10.594c-0.047 0.109-0.109 0.203-0.203 0.297l-11.094 11.094c-0.391 0.391-0.703 0.25-0.703-0.297v-11.094c-0.047 0.109-0.109 0.203-0.203 0.297z"></path>
</symbol>
<symbol id="icon-step-forward" viewBox="0 0 16 28">
<path d="M0.703 25.797c-0.391 0.391-0.703 0.25-0.703-0.297v-23c0-0.547 0.313-0.688 0.703-0.297l11.094 11.094c0.094 0.094 0.156 0.187 0.203 0.297v-10.594c0-0.547 0.453-1 1-1h2c0.547 0 1 0.453 1 1v22c0 0.547-0.453 1-1 1h-2c-0.547 0-1-0.453-1-1v-10.594c-0.047 0.109-0.109 0.203-0.203 0.297z"></path>
</symbol>
<symbol id="icon-chevron-left" viewBox="0 0 21 28">
<path d="M18.297 4.703l-8.297 8.297 8.297 8.297c0.391 0.391 0.391 1.016 0 1.406l-2.594 2.594c-0.391 0.391-1.016 0.391-1.406 0l-11.594-11.594c-0.391-0.391-0.391-1.016 0-1.406l11.594-11.594c0.391-0.391 1.016-0.391 1.406 0l2.594 2.594c0.391 0.391 0.391 1.016 0 1.406z"></path>
</symbol>
<symbol id="icon-chevron-right" viewBox="0 0 19 28">
<path d="M17.297 13.703l-11.594 11.594c-0.391 0.391-1.016 0.391-1.406 0l-2.594-2.594c-0.391-0.391-0.391-1.016 0-1.406l8.297-8.297-8.297-8.297c-0.391-0.391-0.391-1.016 0-1.406l2.594-2.594c0.391-0.391 1.016-0.391 1.406 0l11.594 11.594c0.391 0.391 0.391 1.016 0 1.406z"></path>
</symbol>
<symbol id="icon-arrow-left" viewBox="0 0 25 28">
<path d="M24 14v2c0 1.062-0.703 2-1.828 2h-11l4.578 4.594c0.375 0.359 0.594 0.875 0.594 1.406s-0.219 1.047-0.594 1.406l-1.172 1.188c-0.359 0.359-0.875 0.578-1.406 0.578s-1.047-0.219-1.422-0.578l-10.172-10.187c-0.359-0.359-0.578-0.875-0.578-1.406s0.219-1.047 0.578-1.422l10.172-10.156c0.375-0.375 0.891-0.594 1.422-0.594s1.031 0.219 1.406 0.594l1.172 1.156c0.375 0.375 0.594 0.891 0.594 1.422s-0.219 1.047-0.594 1.422l-4.578 4.578h11c1.125 0 1.828 0.938 1.828 2z"></path>
</symbol>
<symbol id="icon-comments" viewBox="0 0 28 28">
<path d="M22 12c0 4.422-4.922 8-11 8-0.953 0-1.875-0.094-2.75-0.25-1.297 0.922-2.766 1.594-4.344 2-0.422 0.109-0.875 0.187-1.344 0.25h-0.047c-0.234 0-0.453-0.187-0.5-0.453v0c-0.063-0.297 0.141-0.484 0.313-0.688 0.609-0.688 1.297-1.297 1.828-2.594-2.531-1.469-4.156-3.734-4.156-6.266 0-4.422 4.922-8 11-8s11 3.578 11 8zM28 16c0 2.547-1.625 4.797-4.156 6.266 0.531 1.297 1.219 1.906 1.828 2.594 0.172 0.203 0.375 0.391 0.313 0.688v0c-0.063 0.281-0.297 0.484-0.547 0.453-0.469-0.063-0.922-0.141-1.344-0.25-1.578-0.406-3.047-1.078-4.344-2-0.875 0.156-1.797 0.25-2.75 0.25-2.828 0-5.422-0.781-7.375-2.063 0.453 0.031 0.922 0.063 1.375 0.063 3.359 0 6.531-0.969 8.953-2.719 2.609-1.906 4.047-4.484 4.047-7.281 0-0.812-0.125-1.609-0.359-2.375 2.641 1.453 4.359 3.766 4.359 6.375z"></path>
</symbol>
</defs>
</svg>
